<svg width="26" height="25" viewBox="0 0 26 25" fill="none" xmlns="http://www.w3.org/2000/svg">
<g clip-path="url(#clip0_22_56)">
<path fill-rule="evenodd" clip-rule="evenodd" d="M13 2.08333C7.24687 2.08333 2.58333 6.74687 2.58333 12.5C2.58333 18.2531 7.24687 22.9167 13 22.9167C18.7531 22.9167 23.4167 18.2531 23.4167 12.5C23.4167 6.74687 18.7531 2.08333 13 2.08333ZM0.5 12.5C0.5 5.59635 6.09635 0 13 0C19.9036 0 25.5 5.59635 25.5 12.5C25.5 19.4036 19.9036 25 13 25C6.09635 25 0.5 19.4036 0.5 12.5Z" fill="white"/>
<path fill-rule="evenodd" clip-rule="evenodd" d="M10.4911 23.6834C10.3906 23.5532 10.3906 22.3943 10.4911 20.2073C9.41198 20.2448 8.73073 20.1698 8.44583 19.9828C8.01927 19.7021 7.59167 18.837 7.21302 18.2271C6.83385 17.6177 5.99271 17.5209 5.65313 17.3844C5.31354 17.2485 5.22813 16.6927 6.58906 17.1125C7.95 17.5328 8.01615 18.6776 8.44583 18.9448C8.87552 19.2125 9.90208 19.0959 10.3672 18.8813C10.8323 18.6667 10.7979 17.8688 10.8812 17.5526C10.9859 17.2573 10.6161 17.1917 10.6083 17.1896C10.1536 17.1896 7.76771 16.6703 7.11198 14.3599C6.45677 12.049 7.30104 10.5386 7.75156 9.8891C8.05156 9.4568 8.025 8.53389 7.67188 7.12191C8.95469 6.95785 9.94531 7.36149 10.6422 8.33337C10.6432 8.33858 11.5568 7.79014 13 7.79014C14.4437 7.79014 14.9557 8.23701 15.351 8.33337C15.7469 8.42972 16.0625 6.63233 18.5036 7.12191C17.9938 8.12347 17.5672 9.37503 17.8927 9.88962C18.2188 10.4037 19.4969 12.0391 18.712 14.3599C18.188 15.9068 17.1589 16.85 15.624 17.1896C15.4484 17.2459 15.3604 17.3365 15.3604 17.4615C15.3604 17.649 15.5979 17.6693 15.9406 18.548C16.1698 19.1334 16.1859 20.8063 15.9906 23.5662C15.4953 23.6922 15.1099 23.7771 14.8344 23.8203C14.3464 23.8969 13.8161 23.9401 13.2953 23.9563C12.7745 23.973 12.5937 23.9714 11.8734 23.9042C11.4082 23.862 10.9464 23.7882 10.4911 23.6834Z" fill="white"/>
</g>
<defs>
<clipPath id="clip0_22_56">
<rect width="25" height="25" fill="white" transform="translate(0.5)"/>
</clipPath>
</defs>
</svg>
